# xmcd CD database file
#
# Track frame offsets:
#	150
#	18458
#	31195
#	54545
#	75777
#	94351
#	107622
#	121985
#	131382
#	145574
#	160477
#	181723
#	198427
#	218416
#	244353
#	261196
#	277671
#	290541
#
# Disc length: 4066 seconds
#
# Revision: 0
# Processed by: cddbd v1.5.2PL0 Copyright (c) Steve Scherf et al.
# Submitted via: CDex 1.51
#
DISCID=ed0fe012
DTITLE=Jan Hirte - Jan Hirte's Blue Ribbon
DYEAR=2009
DGENRE=Blues
TTITLE0=Pack It Up
TTITLE1=A Certain Girl
TTITLE2=Exactly Like You
TTITLE3=I Always Will
TTITLE4=My Life Is A Boogie
TTITLE5=My Creol Battle
TTITLE6=She Moves Me
TTITLE7=Lila Mathilda
TTITLE8=Shake Your Hips
TTITLE9=The Chokin Kind
TTITLE10=Wayfaring Stranger
TTITLE11=Flying To The Moon
TTITLE12=Last Train To Aalter
TTITLE13=Have You Ever Loved A Woman
TTITLE14=Take My Word Fot It
TTITLE15=Hold It Right There
TTITLE16=Collins Mix
TTITLE17=Wise Up
EXTD=YEAR: 2009
EXTT0=
EXTT1=
EXTT2=
EXTT3=
EXTT4=
EXTT5=
EXTT6=
EXTT7=
EXTT8=
EXTT9=
EXTT10=
EXTT11=
EXTT12=
EXTT13=
EXTT14=
EXTT15=
EXTT16=
EXTT17=
PLAYORDER=
